<svg xmlns="http://www.w3.org/2000/svg" viewBox="0 0 800 1000" width="800" height="1000">
  <defs>
    <style>
      * { margin: 0; padding: 0; box-sizing: border-box; }
      .bg { fill: #FCFCFC; }
      .border { fill: none; stroke: #D8D8D8; stroke-width: 1; }
      .border-thin { fill: none; stroke: #D8D8D8; stroke-width: 0.5; }
      .text-dark { fill: #1C1C1C; }
      .text-muted { fill: #888888; }
      .text-accent { fill: #2C2C2C; }
      .text-white { fill: #FCFCFC; }
      .surface { fill: #F2F2F2; }
      .title { font-family: 'PingFang SC', 'Microsoft YaHei', 'Hiragino Sans', sans-serif; font-size: 36px; font-weight: 700; letter-spacing: 3px; }
      .subtitle { font-family: 'PingFang SC', 'Microsoft YaHei', 'Hiragino Sans', sans-serif; font-size: 11px; font-weight: 400; letter-spacing: 2px; }
      .heading { font-family: 'PingFang SC', 'Microsoft YaHei', 'Hiragino Sans', sans-serif; font-size: 13px; font-weight: 600; letter-spacing: 1px; }
      .body { font-family: 'PingFang SC', 'Microsoft YaHei', 'Hiragino Sans', sans-serif; font-size: 12px; font-weight: 400; }
      .body-bold { font-family: 'PingFang SC', 'Microsoft YaHei', 'Hiragino Sans', sans-serif; font-size: 12px; font-weight: 600; }
      .small { font-family: 'PingFang SC', 'Microsoft YaHei', 'Hiragino Sans', sans-serif; font-size: 10px; font-weight: 400; }
      .total { font-family: 'PingFang SC', 'Microsoft YaHei', 'Hiragino Sans', sans-serif; font-size: 16px; font-weight: 700; letter-spacing: 1px; }
      .en { font-family: 'Helvetica Neue', Arial, sans-serif; }
    </style>
  </defs>

  <!-- Background -->
  <rect class="bg" width="800" height="1000" rx="0" ry="0"/>
  
  <!-- Outer border -->
  <rect class="border" x="20" y="20" width="760" height="960" rx="0" ry="0"/>

  <!-- ===== HEADER SECTION ===== -->
  <!-- Company / Logo placeholder area - left side -->
  <rect class="border-thin" x="40" y="40" width="180" height="60" rx="0" ry="0"/>
  <text class="heading text-muted" x="50" y="78">LOGO 区域</text>
  
  <!-- INVOICE title - right side -->
  <text class="title text-accent" x="580" y="85" text-anchor="end">INVOICE</text>
  <text class="subtitle text-muted" x="580" y="102" text-anchor="end">发票 / 收据</text>

  <!-- Divider line -->
  <line class="border" x1="40" y1="120" x2="760" y2="120"/>

  <!-- Invoice number & date - right aligned -->
  <text class="body text-muted" x="580" y="145" text-anchor="end">发票编号：INV-2025-00389</text>
  <text class="body text-muted" x="580" y="162" text-anchor="end">日期：2025年1月15日</text>
  <text class="body text-muted" x="580" y="179" text-anchor="end">到期日：2025年2月14日</text>

  <!-- ===== BILL TO SECTION ===== -->
  <text class="heading text-dark" x="40" y="165">收票方信息 / BILL TO</text>
  
  <text class="body text-dark" x="40" y="195">北京华信科技有限公司</text>
  <text class="body text-muted" x="40" y="215">北京市海淀区中关村大街 88 号 6 层 601</text>
  <text class="body text-muted" x="40" y="232">billing@huaxin-tech.cn · 010-8250 1234</text>
  <text class="body text-muted" x="40" y="249">统一社会信用代码：91110108MA01XXXXX</text>

  <!-- ===== TABLE SECTION ===== -->
  <!-- Table header row -->
  <rect class="surface" x="40" y="280" width="720" height="36" rx="0" ry="0"/>
  <line class="border" x1="40" y1="280" x2="760" y2="280"/>
  <line class="border" x1="40" y1="316" x2="760" y2="316"/>
  
  <!-- Table header text -->
  <text class="heading text-dark" x="50" y="303">项目描述 / DESCRIPTION</text>
  <text class="heading text-dark" x="430" y="303" text-anchor="end">数量</text>
  <text class="heading text-dark" x="540" y="303" text-anchor="end">单价</text>
  <text class="heading text-dark" x="740" y="303" text-anchor="end">金额</text>

  <!-- Vertical grid lines in table -->
  <line class="border-thin" x1="460" y1="280" x2="460" y2="580"/>
  <line class="border-thin" x1="570" y1="280" x2="570" y2="580"/>
  <line class="border-thin" x1="680" y1="280" x2="680" y2="580"/>

  <!-- Row 1 -->
  <line class="border-thin" x1="40" y1="352" x2="760" y2="352"/>
  <text class="body text-dark" x="50" y="340">网站设计服务 — 企业官网 UI/UX 设计与前端开发</text>
  <text class="body text-dark" x="430" y="340" text-anchor="end">1</text>
  <text class="body text-dark" x="540" y="340" text-anchor="end">¥15,000.00</text>
  <text class="body text-dark" x="740" y="340" text-anchor="end">¥15,000.00</text>

  <!-- Row 2 -->
  <line class="border-thin" x1="40" y1="388" x2="760" y2="388"/>
  <text class="body text-dark" x="50" y="376">品牌 VI 设计 — Logo 及视觉识别系统规范手册</text>
  <text class="body text-dark" x="430" y="376" text-anchor="end">1</text>
  <text class="body text-dark" x="540" y="376" text-anchor="end">¥8,500.00</text>
  <text class="body text-dark" x="740" y="376" text-anchor="end">¥8,500.00</text>

  <!-- Row 3 -->
  <line class="border-thin" x1="40" y1="424" x2="760" y2="424"/>
  <text class="body text-dark" x="50" y="412">服务器部署与运维 — 阿里云 ECS 配置及 SSL 证书安装</text>
  <text class="body text-dark" x="430" y="412" text-anchor="end">3</text>
  <text class="body text-dark" x="540" y="412" text-anchor="end">¥2,200.00</text>
  <text class="body text-dark" x="740" y="412" text-anchor="end">¥6,600.00</text>

  <!-- Row 4 -->
  <line class="border-thin" x1="40" y1="460" x2="760" y2="460"/>
  <text class="body text-dark" x="50" y="448">年度技术支持合同 — 2025年运维与安全维护</text>
  <text class="body text-dark" x="430" y="448" text-anchor="end">1</text>
  <text class="body text-dark" x="540" y="448" text-anchor="end">¥12,000.00</text>
  <text class="body text-dark" x="740" y="448" text-anchor="end">¥12,000.00</text>

  <!-- Row 5 -->
  <line class="border-thin" x1="40" y1="496" x2="760" y2="496"/>
  <text class="body text-dark" x="50" y="484">移动端适配开发 — iOS/Android 响应式界面实现</text>
  <text class="body text-dark" x="430" y="484" text-anchor="end">2</text>
  <text class="body text-dark" x="540" y="484" text-anchor="end">¥5,800.00</text>
  <text class="body text-dark" x="740" y="484" text-anchor="end">¥11,600.00</text>

  <!-- Bottom border of table -->
  <line class="border" x1="40" y1="580" x2="760" y2="580"/>

  <!-- ===== SUBTOTAL / TAX / TOTAL SECTION ===== -->
  <line class="border-thin" x1="570" y1="580" x2="760" y2="580"/>
  
  <!-- Subtotal row -->
  <line class="border-thin" x1="570" y1="620" x2="760" y2="620"/>
  <text class="body text-dark" x="580" y="612">小计 / Subtotal</text>
  <text class="body text-dark" x="740" y="612" text-anchor="end">¥53,700.00</text>

  <!-- Tax row -->
  <line class="border-thin" x1="570" y1="656" x2="760" y2="656"/>
  <text class="body text-dark" x="580" y="648">税率 6% / Tax (6%)</text>
  <text class="body text-dark" x="740" y="648" text-anchor="end">¥3,222.00</text>

  <!-- Total row - bold with accent -->
  <rect class="surface" x="570" y="660" width="190" height="44" rx="0" ry="0"/>
  <line class="border" x1="570" y1="660" x2="760" y2="660"/>
  <line class="border" x1="570" y1="704" x2="760" y2="704"/>
  <line class="border-thin" x1="680" y1="660" x2="680" y2="704"/>
  
  <text class="total text-accent" x="580" y="690">合计 / Total</text>
  <text class="total text-accent" x="740" y="690" text-anchor="end">¥56,922.00</text>

  <!-- ===== PAYMENT INFO SECTION ===== -->
  <text class="heading text-dark" x="40" y="640">付款信息 / PAYMENT INFO</text>
  
  <text class="body text-dark" x="40" y="670">银行账户：中国工商银行 北京中关村支行</text>
  <text class="body text-dark" x="40" y="690">账号：6222 0200 1234 5678 901</text>
  <text class="body text-dark" x="40" y="710">户名：北京华信科技有限公司</text>
  <text class="body text-dark" x="40" y="730">支付宝：billing@huaxin-tech.cn（华信科技）</text>
  <text class="body text-dark" x="40" y="750">微信支付：wxid_huaxin_2025</text>

  <!-- ===== THANK YOU SECTION ===== -->
  <line class="border" x1="40" y1="800" x2="760" y2="800"/>
  
  <text class="total text-accent" x="400" y="840" text-anchor="middle">感谢您的信任与支持</text>
  <text class="body text-muted" x="400" y="865" text-anchor="middle">Thank you for your business and trust.</text>
  
  <text class="small text-muted" x="400" y="900" text-anchor="middle">此发票为电子发票，打印有效。如有疑问请联系 010-8250 1234</text>
  <text class="small text-muted" x="400" y="918" text-anchor="middle">本发票生成于 2025年1月15日 14:23:45</text>

  <!-- Footer line -->
  <line class="border-thin" x1="40" y1="940" x2="760" y2="940"/>
  <text class="small text-muted" x="40" y="958">华信科技 · 北京市海淀区中关村大街 88 号 · 发票编号 INV-2025-00389</text>
  <text class="small text-muted" x="760" y="958" text-anchor="end">第 1 页 / 共 1 页</text>
</svg>