<svg xmlns="http://www.w3.org/2000/svg" viewBox="0 0 800 1000" width="800" height="1000">
  <defs>
    <style>
      text {
        font-family: 'PingFang SC', 'Microsoft YaHei', 'Hiragino Sans', sans-serif;
        fill: #1a1a1a;
      }
      .title-main {
        font-size: 28px;
        font-weight: 700;
        letter-spacing: 6px;
        text-anchor: middle;
      }
      .title-sub {
        font-size: 11px;
        font-weight: 300;
        letter-spacing: 4px;
        text-anchor: middle;
        fill: #555;
      }
      .footer-text {
        font-size: 10px;
        letter-spacing: 2px;
        text-anchor: middle;
        fill: #888;
      }
      .mandala-line {
        fill: none;
        stroke: #1a1a1a;
        stroke-linecap: round;
        stroke-linejoin: round;
      }
      .mandala-fill {
        fill: #1a1a1a;
      }
    </style>
  </defs>

  <!-- White background -->
  <rect width="800" height="1000" fill="#ffffff"/>

  <!-- Outer border -->
  <rect x="20" y="20" width="760" height="960" fill="none" stroke="#1a1a1a" stroke-width="2.5" rx="4"/>

  <!-- Inner border frame -->
  <rect x="30" y="30" width="740" height="940" fill="none" stroke="#1a1a1a" stroke-width="0.8" rx="2"/>

  <!-- Title area divider line -->
  <line x1="60" y1="80" x2="740" y2="80" stroke="#1a1a1a" stroke-width="0.5"/>

  <!-- Titles -->
  <text x="400" y="58" class="title-main">曼陀罗禅绕画</text>
  <text x="400" y="73" class="title-sub">MANDALA ZENTANGLE COLORING PAGE</text>

  <!-- Footer divider line -->
  <line x1="60" y1="940" x2="740" y2="940" stroke="#1a1a1a" stroke-width="0.5"/>
  <text x="400" y="960" class="footer-text">© 曼陀罗艺术 · 解压涂色</text>

  <!-- ===== MANDALA PATTERN ===== -->
  <!-- Center at (400, 510) -->

  <!-- Ring 1 - outermost large petals (radius ~290) -->
  <g>
    <!-- 16 large petals -->
    <g transform="translate(400, 510)">
      <g id="petal-outer">
        <path d="M 0,-290 C 25,-270 35,-230 0,-200 C -35,-230 -25,-270 0,-290" class="mandala-line" stroke-width="1.8"/>
        <path d="M 0,-290 C 15,-275 20,-245 0,-215 C -20,-245 -15,-275 0,-290" class="mandala-line" stroke-width="0.6"/>
      </g>
      <use href="#petal-outer" transform="rotate(22.5)"/>
      <use href="#petal-outer" transform="rotate(45)"/>
      <use href="#petal-outer" transform="rotate(67.5)"/>
      <use href="#petal-outer" transform="rotate(90)"/>
      <use href="#petal-outer" transform="rotate(112.5)"/>
      <use href="#petal-outer" transform="rotate(135)"/>
      <use href="#petal-outer" transform="rotate(157.5)"/>
      <use href="#petal-outer" transform="rotate(180)"/>
      <use href="#petal-outer" transform="rotate(202.5)"/>
      <use href="#petal-outer" transform="rotate(225)"/>
      <use href="#petal-outer" transform="rotate(247.5)"/>
      <use href="#petal-outer" transform="rotate(270)"/>
      <use href="#petal-outer" transform="rotate(292.5)"/>
      <use href="#petal-outer" transform="rotate(315)"/>
      <use href="#petal-outer" transform="rotate(337.5)"/>
    </g>
  </g>

  <!-- Ring 2 - scalloped circle border (radius ~260) -->
  <g transform="translate(400, 510)">
    <circle cx="0" cy="0" r="260" class="mandala-line" stroke-width="1.2"/>
    <circle cx="0" cy="0" r="255" class="mandala-line" stroke-width="0.5"/>
    <!-- Scallop dots -->
    <g id="scallop-dot">
      <circle cx="0" cy="-260" r="4" class="mandala-fill"/>
      <circle cx="0" cy="-260" r="6" class="mandala-line" stroke-width="0.5"/>
    </g>
    <use href="#scallop-dot" transform="rotate(22.5)"/>
    <use href="#scallop-dot" transform="rotate(45)"/>
    <use href="#scallop-dot" transform="rotate(67.5)"/>
    <use href="#scallop-dot" transform="rotate(90)"/>
    <use href="#scallop-dot" transform="rotate(112.5)"/>
    <use href="#scallop-dot" transform="rotate(135)"/>
    <use href="#scallop-dot" transform="rotate(157.5)"/>
    <use href="#scallop-dot" transform="rotate(180)"/>
    <use href="#scallop-dot" transform="rotate(202.5)"/>
    <use href="#scallop-dot" transform="rotate(225)"/>
    <use href="#scallop-dot" transform="rotate(247.5)"/>
    <use href="#scallop-dot" transform="rotate(270)"/>
    <use href="#scallop-dot" transform="rotate(292.5)"/>
    <use href="#scallop-dot" transform="rotate(315)"/>
    <use href="#scallop-dot" transform="rotate(337.5)"/>
  </g>

  <!-- Ring 3 - decorative band (radius ~235) -->
  <g transform="translate(400, 510)">
    <circle cx="0" cy="0" r="235" class="mandala-line" stroke-width="1"/>
    <circle cx="0" cy="0" r="228" class="mandala-line" stroke-width="0.5"/>
    <!-- Diamond pattern band -->
    <g id="band-diamond">
      <path d="M 0,-235 L 6,-228 L 0,-221 L -6,-228 Z" class="mandala-line" stroke-width="0.7"/>
    </g>
    <use href="#band-diamond" transform="rotate(15)"/>
    <use href="#band-diamond" transform="rotate(30)"/>
    <use href="#band-diamond" transform="rotate(45)"/>
    <use href="#band-diamond" transform="rotate(60)"/>
    <use href="#band-diamond" transform="rotate(75)"/>
    <use href="#band-diamond" transform="rotate(90)"/>
    <use href="#band-diamond" transform="rotate(105)"/>
    <use href="#band-diamond" transform="rotate(120)"/>
    <use href="#band-diamond" transform="rotate(135)"/>
    <use href="#band-diamond" transform="rotate(150)"/>
    <use href="#band-diamond" transform="rotate(165)"/>
    <use href="#band-diamond" transform="rotate(180)"/>
    <use href="#band-diamond" transform="rotate(195)"/>
    <use href="#band-diamond" transform="rotate(210)"/>
    <use href="#band-diamond" transform="rotate(225)"/>
    <use href="#band-diamond" transform="rotate(240)"/>
    <use href="#band-diamond" transform="rotate(255)"/>
    <use href="#band-diamond" transform="rotate(270)"/>
    <use href="#band-diamond" transform="rotate(285)"/>
    <use href="#band-diamond" transform="rotate(300)"/>
    <use href="#band-diamond" transform="rotate(315)"/>
    <use href="#band-diamond" transform="rotate(330)"/>
    <use href="#band-diamond" transform="rotate(345)"/>
  </g>

  <!-- Ring 4 - medium petals (radius ~210) -->
  <g transform="translate(400, 510)">
    <circle cx="0" cy="0" r="210" class="mandala-line" stroke-width="0.8"/>
    <g id="petal-medium">
      <path d="M 0,-210 C 18,-195 25,-165 0,-140 C -25,-165 -18,-195 0,-210" class="mandala-line" stroke-width="1.5"/>
      <path d="M 0,-210 C 10,-200 14,-175 0,-155 C -14,-175 -10,-200 0,-210" class="mandala-line" stroke-width="0.5"/>
      <!-- Petal tip dot -->
      <circle cx="0" cy="-210" r="2.5" class="mandala-fill"/>
    </g>
    <use href="#petal-medium" transform="rotate(30)"/>
    <use href="#petal-medium" transform="rotate(60)"/>
    <use href="#petal-medium" transform="rotate(90)"/>
    <use href="#petal-medium" transform="rotate(120)"/>
    <use href="#petal-medium" transform="rotate(150)"/>
    <use href="#petal-medium" transform="rotate(180)"/>
    <use href="#petal-medium" transform="rotate(210)"/>
    <use href="#petal-medium" transform="rotate(240)"/>
    <use href="#petal-medium" transform="rotate(270)"/>
    <use href="#petal-medium" transform="rotate(300)"/>
    <use href="#petal-medium" transform="rotate(330)"/>
  </g>

  <!-- Ring 5 - circular band with dots (radius ~185) -->
  <g transform="translate(400, 510)">
    <circle cx="0" cy="0" r="185" class="mandala-line" stroke-width="1"/>
    <circle cx="0" cy="0" r="180" class="mandala-line" stroke-width="0.4"/>
    <circle cx="0" cy="0" r="175" class="mandala-line" stroke-width="0.8"/>
    <!-- Dot ring -->
    <g id="dot-ring">
      <circle cx="0" cy="-182" r="2" class="mandala-fill"/>
    </g>
    <use href="#dot-ring" transform="rotate(10)"/>
    <use href="#dot-ring" transform="rotate(20)"/>
    <use href="#dot-ring" transform="rotate(30)"/>
    <use href="#dot-ring" transform="rotate(40)"/>
    <use href="#dot-ring" transform="rotate(50)"/>
    <use href="#dot-ring" transform="rotate(60)"/>
    <use href="#dot-ring" transform="rotate(70)"/>
    <use href="#dot-ring" transform="rotate(80)"/>
    <use href="#dot-ring" transform="rotate(90)"/>
    <use href="#dot-ring" transform="rotate(100)"/>
    <use href="#dot-ring" transform="rotate(110)"/>
    <use href="#dot-ring" transform="rotate(120)"/>
    <use href="#dot-ring" transform="rotate(130)"/>
    <use href="#dot-ring" transform="rotate(140)"/>
    <use href="#dot-ring" transform="rotate(150)"/>
    <use href="#dot-ring" transform="rotate(160)"/>
    <use href="#dot-ring" transform="rotate(170)"/>
    <use href="#dot-ring" transform="rotate(180)"/>
    <use href="#dot-ring" transform="rotate(190)"/>
    <use href="#dot-ring" transform="rotate(200)"/>
    <use href="#dot-ring" transform="rotate(210)"/>
    <use href="#dot-ring" transform="rotate(220)"/>
    <use href="#dot-ring" transform="rotate(230)"/>
    <use href="#dot-ring" transform="rotate(240)"/>
    <use href="#dot-ring" transform="rotate(250)"/>
    <use href="#dot-ring" transform="rotate(260)"/>
    <use href="#dot-ring" transform="rotate(270)"/>
    <use href="#dot-ring" transform="rotate(280)"/>
    <use href="#dot-ring" transform="rotate(290)"/>
    <use href="#dot-ring" transform="rotate(300)"/>
    <use href="#dot-ring" transform="rotate(310)"/>
    <use href="#dot-ring" transform="rotate(320)"/>
    <use href="#dot-ring" transform="rotate(330)"/>
    <use href="#dot-ring" transform="rotate(340)"/>
    <use href="#dot-ring" transform="rotate(350)"/>
  </g>

  <!-- Ring 6 - small petals (radius ~155) -->
  <g transform="translate(400, 510)">
    <circle cx="0" cy="0" r="155" class="mandala-line" stroke-width="0.7"/>
    <g id="petal-small">
      <path d="M 0,-155 C 12,-145 18,-120 0,-100 C -18,-120 -12,-145 0,-155" class="mandala-line" stroke-width="1.2"/>
      <path d="M 0,-155 C 6,-148 8,-130 0,-112 C -8,-130 -6,-148 0,-155" class="mandala-line" stroke-width="0.4"/>
    </g>
    <use href="#petal-small" transform="rotate(20)"/>
    <use href="#petal-small" transform="rotate(40)"/>
    <use href="#petal-small" transform="rotate(60)"/>
    <use href="#petal-small" transform="rotate(80)"/>
    <use href="#petal-small" transform="rotate(100)"/>
    <use href="#petal-small" transform="rotate(120)"/>
    <use href="#petal-small" transform="rotate(140)"/>
    <use href="#petal-small" transform="rotate(160)"/>
    <use href="#petal-small" transform="rotate(180)"/>
    <use href="#petal-small" transform="rotate(200)"/>
    <use href="#petal-small" transform="rotate(220)"/>
    <use href="#petal-small" transform="rotate(240)"/>
    <use href="#petal-small" transform="rotate(260)"/>
    <use href="#petal-small" transform="rotate(280)"/>
    <use href="#petal-small" transform="rotate(300)"/>
    <use href="#petal-small" transform="rotate(320)"/>
    <use href="#petal-small" transform="rotate(340)"/>
  </g>

  <!-- Ring 7 - geometric band (radius ~130) -->
  <g transform="translate(400, 510)">
    <circle cx="0" cy="0" r="130" class="mandala-line" stroke-width="0.9"/>
    <circle cx="0" cy="0" r="125" class="mandala-line" stroke-width="0.4"/>
    <!-- Triangle wave pattern -->
    <g id="tri-wave">
      <path d="M 0,-130 L 5,-125 L 0,-120 L -5,-125 Z" class="mandala-line" stroke-width="0.6"/>
    </g>
    <use href="#tri-wave" transform="rotate(12)"/>
    <use href="#tri-wave" transform="rotate(24)"/>
    <use href="#tri-wave" transform="rotate(36)"/>
    <use href="#tri-wave" transform="rotate(48)"/>
    <use href="#tri-wave" transform="rotate(60)"/>
    <use href="#tri-wave" transform="rotate(72)"/>
    <use href="#tri-wave" transform="rotate(84)"/>
    <use href="#tri-wave" transform="rotate(96)"/>
    <use href="#tri-wave" transform="rotate(108)"/>
    <use href="#tri-wave" transform="rotate(120)"/>
    <use href="#tri-wave" transform="rotate(132)"/>
    <use href="#tri-wave" transform="rotate(144)"/>
    <use href="#tri-wave" transform="rotate(156)"/>
    <use href="#tri-wave" transform="rotate(168)"/>
    <use href="#tri-wave" transform="rotate(180)"/>
    <use href="#tri-wave" transform="rotate(192)"/>
    <use href="#tri-wave" transform="rotate(204)"/>
    <use href="#tri-wave" transform="rotate(216)"/>
    <use href="#tri-wave" transform="rotate(228)"/>
    <use href="#tri-wave" transform="rotate(240)"/>
    <use href="#tri-wave" transform="rotate(252)"/>
    <use href="#tri-wave" transform="rotate(264)"/>
    <use href="#tri-wave" transform="rotate(276)"/>
    <use href="#tri-wave" transform="rotate(288)"/>
    <use href="#tri-wave" transform="rotate(300)"/>
    <use href="#tri-wave" transform="rotate(312)"/>
    <use href="#tri-wave" transform="rotate(324)"/>
    <use href="#tri-wave" transform="rotate(336)"/>
    <use href="#tri-wave" transform="rotate(348)"/>
  </g>

  <!-- Ring 8 - inner petals (radius ~108) -->
  <g transform="translate(400, 510)">
    <circle cx="0" cy="0" r="108" class="mandala-line" stroke-width="0.6"/>
    <g id="petal-inner">
      <path d="M 0,-108 C 10,-100 14,-80 0,-65 C -14,-80 -10,-100 0,-108" class="mandala-line" stroke-width="1"/>
      <circle cx="0" cy="-108" r="2" class="mandala-fill"/>
    </g>
    <use href="#petal-inner" transform="rotate(24)"/>
    <use href="#petal-inner" transform="rotate(48)"/>
    <use href="#petal-inner" transform="rotate(72)"/>
    <use href="#petal-inner" transform="rotate(96)"/>
    <use href="#petal-inner" transform="rotate(120)"/>
    <use href="#petal-inner" transform="rotate(144)"/>
    <use href="#petal-inner" transform="rotate(168)"/>
    <use href="#petal-inner" transform="rotate(192)"/>
    <use href="#petal-inner" transform="rotate(216)"/>
    <use href="#petal-inner" transform="rotate(240)"/>
    <use href="#petal-inner" transform="rotate(264)"/>
    <use href="#petal-inner" transform="rotate(288)"/>
    <use href="#petal-inner" transform="rotate(312)"/>
    <use href="#petal-inner" transform="rotate(336)"/>
  </g>

  <!-- Ring 9 - circular band (radius ~82) -->
  <g transform="translate(400, 510)">
    <circle cx="0" cy="0" r="82" class="mandala-line" stroke-width="0.9"/>
    <circle cx="0" cy="0" r="78" class="mandala-line" stroke-width="0.4"/>
    <!-- Small dot ring -->
    <g id="dot-small">
      <circle cx="0" cy="-80" r="1.5" class="mandala-fill"/>
    </g>
    <use href="#dot-small" transform="rotate(15)"/>
    <use href="#dot-small" transform="rotate(30)"/>
    <use href="#dot-small" transform="rotate(45)"/>
    <use href="#dot-small" transform="rotate(60)"/>
    <use href="#dot-small" transform="rotate(75)"/>
    <use href="#dot-small" transform="rotate(90)"/>
    <use href="#dot-small" transform="rotate(105)"/>
    <use href="#dot-small" transform="rotate(120)"/>
    <use href="#dot-small" transform="rotate(135)"/>
    <use href="#dot-small" transform="rotate(150)"/>
    <use href="#dot-small" transform="rotate(165)"/>
    <use href="#dot-small" transform="rotate(180)"/>
    <use href="#dot-small" transform="rotate(195)"/>
    <use href="#dot-small" transform="rotate(210)"/>
    <use href="#dot-small" transform="rotate(225)"/>
    <use href="#dot-small" transform="rotate(240)"/>
    <use href="#dot-small" transform="rotate(255)"/>
    <use href="#dot-small" transform="rotate(270)"/>
    <use href="#dot-small" transform="rotate(285)"/>
    <use href="#dot-small" transform="rotate(300)"/>
    <use href="#dot-small" transform="rotate(315)"/>
    <use href="#dot-small" transform="rotate(330)"/>
    <use href="#dot-small" transform="rotate(345)"/>
  </g>

  <!-- Ring 10 - tiny petals (radius ~60) -->
  <g transform="translate(400, 510)">
    <circle cx="0" cy="0" r="60" class="mandala-line" stroke-width="0.6"/>
    <g id="petal-tiny">
      <path d="M 0,-60 C 7,-54 10,-40 0,-30 C -10,-40 -7,-54 0,-60" class="mandala-line" stroke-width="0.9"/>
    </g>
    <use href="#petal-tiny" transform="rotate(30)"/>
    <use href="#petal-tiny" transform="rotate(60)"/>
    <use href="#petal-tiny" transform="rotate(90)"/>
    <use href="#petal-tiny" transform="rotate(120)"/>
    <use href="#petal-tiny" transform="rotate(150)"/>
    <use href="#petal-tiny" transform="rotate(180)"/>
    <use href="#petal-tiny" transform="rotate(210)"/>
    <use href="#petal-tiny" transform="rotate(240)"/>
    <use href="#petal-tiny" transform="rotate(270)"/>
    <use href="#petal-tiny" transform="rotate(300)"/>
    <use href="#petal-tiny" transform="rotate(330)"/>
  </g>

  <!-- Ring 11 - inner circle (radius ~42) -->
  <g transform="translate(400, 510)">
    <circle cx="0" cy="0" r="42" class="mandala-line" stroke-width="0.8"/>
    <circle cx="0" cy="0" r="38" class="mandala-line" stroke-width="0.4"/>
    <!-- Star pattern inside -->
    <g id="star-point">
      <path d="M 0,-42 L 3,-36 L 0,-30 L -3,-36 Z" class="mandala-line" stroke-width="0.6"/>
    </g>
    <use href="#star-point" transform="rotate(36)"/>
    <use href="#star-point" transform="rotate(72)"/>
    <use href="#star-point" transform="rotate(108)"/>
    <use href="#star-point" transform="rotate(144)"/>
    <use href="#star-point" transform="rotate(180)"/>
    <use href="#star-point" transform="rotate(216)"/>
    <use href="#star-point" transform="rotate(252)"/>
    <use href="#star-point" transform="rotate(288)"/>
    <use href="#star-point" transform="rotate(324)"/>
  </g>

  <!-- Ring 12 - center core (radius ~22) -->
  <g transform="translate(400, 510)">
    <circle cx="0" cy="0" r="22" class="mandala-line" stroke-width="0.9"/>
    <circle cx="0" cy="0" r="18" class="mandala-line" stroke-width="0.5"/>
    <!-- Small center petals -->
    <g id="petal-core">
      <path d="M 0,-22 C 4,-18 6,-12 0,-8 C -6,-12 -4,-18 0,-22" class="mandala-line" stroke-width="0.7"/>
    </g>
    <use href="#petal-core" transform="rotate(45)"/>
    <use href="#petal-core" transform="rotate(90)"/>
    <use href="#petal-core" transform="rotate(135)"/>
    <use href="#petal-core" transform="rotate(180)"/>
    <use href="#petal-core" transform="rotate(225)"/>
    <use href="#petal-core" transform="rotate(270)"/>
    <use href="#petal-core" transform="rotate(315)"/>
  </g>

  <!-- Center dot -->
  <g transform="translate(400, 510)">
    <circle cx="0" cy="0" r="6" class="mandala-line" stroke-width="0.8"/>
    <circle cx="0" cy="0" r="3" class="mandala-fill"/>
    <circle cx="0" cy="0" r="4.5" class="mandala-line" stroke-width="0.3"/>
  </g>

  <!-- Corner decorative elements -->
  <g opacity="0.15">
    <!-- Top-left corner -->
    <path d="M 40,40 L 40,100 M 40,40 L 100,40" stroke="#1a1a1a" stroke-width="0.8" fill="none"/>
    <path d="M 45,45 L 45,90 M 45,45 L 90,45" stroke="#1a1a1a" stroke-width="0.4" fill="none"/>
    <!-- Top-right corner -->
    <path d="M 760,40 L 760,100 M 760,40 L 700,40" stroke="#1a1a1a" stroke-width="0.8" fill="none"/>
    <path d="M 755,45 L 755,90 M 755,45 L 710,45" stroke="#1a1a1a" stroke-width="0.4" fill="none"/>
    <!-- Bottom-left corner -->
    <path d="M 40,960 L 40,900 M 40,960 L 100,960" stroke="#1a1a1a" stroke-width="0.8" fill="none"/>
    <path d="M 45,955 L 45,910 M 45,955 L 90,955" stroke="#1a1a1a" stroke-width="0.4" fill="none"/>
    <!-- Bottom-right corner -->
    <path d="M 760,960 L 760,900 M 760,960 L 700,960" stroke="#1a1a1a" stroke-width="0.8" fill="none"/>
    <path d="M 755,955 L 755,910 M 755,955 L 710,955" stroke="#1a1a1a" stroke-width="0.4" fill="none"/>
  </g>

  <!-- Side decorative marks -->
  <g opacity="0.12">
    <line x1="40" y1="500" x2="55" y2="500" stroke="#1a1a1a" stroke-width="0.6"/>
    <line x1="40" y1="510" x2="55" y2="510" stroke="#1a1a1a" stroke-width="0.6"/>
    <line x1="40" y1="520" x2="55" y2="520" stroke="#1a1a1a" stroke-width="0.6"/>
    <line x1="745" y1="500" x2="760" y2="500" stroke="#1a1a1a" stroke-width="0.6"/>
    <line x1="745" y1="510" x2="760" y2="510" stroke="#1a1a1a" stroke-width="0.6"/>
    <line x1="745" y1="520" x2="760" y2="520" stroke="#1a1a1a" stroke-width="0.6"/>
  </g>
</svg>